<?xml version="1.0" standalone="no"?>
<!DOCTYPE svg PUBLIC "-//W3C//DTD SVG 20010904//EN"
 "http://www.w3.org/TR/2001/REC-SVG-20010904/DTD/svg10.dtd">
<svg version="1.0" xmlns="http://www.w3.org/2000/svg"
 width="102.000000pt" height="102.000000pt" viewBox="0 0 102.000000 102.000000"
 preserveAspectRatio="xMidYMid meet">

<g transform="translate(0.000000,102.000000) scale(0.100000,-0.100000)"
fill="#000000" stroke="none">
<path d="M340 876 c-6 -8 -19 -52 -29 -98 -15 -78 -20 -86 -69 -137 -55 -55
-91 -116 -112 -188 -11 -35 -18 -43 -37 -43 -29 0 -31 -20 -2 -27 20 -6 39
-39 39 -68 0 -8 -15 -17 -35 -21 -49 -9 -45 -28 5 -20 33 5 41 3 50 -14 9 -17
7 -24 -12 -40 -24 -20 -17 -25 25 -20 11 1 25 -8 33 -19 20 -28 124 -84 216
-115 97 -33 230 -36 294 -7 23 10 45 24 48 30 11 17 35 13 63 -9 39 -30 49
-12 13 25 l-31 32 23 27 c21 25 26 27 51 15 38 -17 45 -5 12 23 -26 23 -27 24
-8 46 15 19 22 21 51 13 25 -7 32 -7 32 4 0 7 -11 16 -25 19 -25 6 -25 9 -18
59 8 64 8 62 -1 168 -6 79 -5 87 15 114 15 18 24 46 27 83 l5 55 -55 -6 c-30
-4 -73 -13 -95 -21 -36 -13 -43 -12 -97 11 -44 18 -78 24 -150 26 l-94 3 -52
57 c-29 31 -56 57 -60 57 -4 0 -13 -6 -20 -14z m77 -79 l41 -53 101 -1 c90 0
105 -3 154 -28 54 -29 55 -29 98 -12 49 19 139 33 139 23 0 -7 -19 -39 -57
-97 -24 -36 -24 -38 -10 -110 15 -79 9 -181 -11 -201 -8 -8 -26 -9 -69 -1 -33
6 -62 7 -67 2 -10 -9 23 -24 78 -34 40 -8 42 -13 23 -39 -12 -16 -18 -17 -55
-5 -23 7 -45 10 -48 6 -11 -11 6 -25 36 -32 31 -7 37 -19 20 -45 -8 -12 -14
-10 -38 13 -45 44 -59 29 -21 -24 24 -34 20 -43 -29 -68 -84 -42 -192 -34
-331 24 -88 36 -147 72 -156 92 -2 8 10 19 30 27 35 15 51 44 18 31 -57 -21
-92 -15 -93 16 0 8 72 29 99 29 13 0 21 6 21 16 0 12 -6 15 -22 10 -90 -24
-117 -18 -118 27 0 14 9 17 55 17 71 0 71 16 0 25 -53 6 -55 7 -49 33 19 79
83 173 147 215 18 12 27 26 27 44 0 52 22 153 34 153 6 0 30 -24 53 -53z"/>
<path d="M459 654 c-33 -35 -55 -46 -117 -59 -29 -6 -52 -15 -50 -20 3 -11 81
-7 115 6 26 10 103 77 103 90 0 18 -27 9 -51 -17z"/>
<path d="M680 633 c1 -55 82 -163 122 -163 28 0 21 16 -15 38 -31 18 -50 47
-76 115 -12 30 -31 36 -31 10z"/>
<path d="M340 500 c0 -13 11 -17 73 -25 37 -5 47 -3 47 8 0 8 -14 17 -31 21
-47 9 -89 7 -89 -4z"/>
<path d="M610 470 c0 -12 10 -16 63 -25 47 -8 53 19 6 29 -46 9 -69 7 -69 -4z"/>
<path d="M490 360 c0 -30 -27 -78 -51 -91 -16 -8 -25 -7 -39 6 -29 26 -46 8
-19 -21 24 -26 59 -24 91 3 14 13 19 12 37 -6 43 -43 113 -38 140 11 21 37 4
49 -21 15 -13 -18 -29 -27 -47 -27 -40 0 -61 28 -61 83 0 35 -4 47 -15 47 -8
0 -15 -9 -15 -20z"/>
<path d="M952 60 c0 -14 2 -19 5 -12 2 6 2 18 0 25 -3 6 -5 1 -5 -13z"/>
</g>
</svg>
